<svg version="1.1" xmlns="http://www.w3.org/2000/svg" xmlns:xlink="http://www.w3.org/1999/xlink" width="32px" height="32px" viewBox="0,0,256,256"><g fill="#000000" fill-rule="nonzero" stroke="#000000" stroke-width="1" stroke-linecap="butt" stroke-linejoin="round" stroke-miterlimit="10" stroke-dasharray="" stroke-dashoffset="0" font-family="none" font-weight="none" font-size="none" text-anchor="none" style="mix-blend-mode: normal"><path transform="scale(8,8)" d="M17.03125,3.88281l-1.10937,1.1875c5.62035,0.4708 10.05469,5.19018 10.05469,10.92969c0,6.05047 -4.92609,10.97656 -10.97656,10.97656l-13.99805,0.02344l-0.00391,-2l14.00195,-0.02344c4.96953,0 8.97656,-4.00703 8.97656,-8.97656c0,-4.74401 -3.65395,-8.60217 -8.30859,-8.94336l1.36328,1.46094l-1.46289,1.36523l-3.43555,-3.68359l3.43555,-3.68164zM10.65039,8.15039c-2.85,1.58 -4.63086,4.58961 -4.63086,7.84961c0,2.83 1.31133,5.35 3.36133,7h-2.83008c-1.58,-1.9 -2.53125,-4.35 -2.53125,-7c0,-3.99 2.17016,-7.66961 5.66016,-9.59961zM31.86719,26l-3.43555,3.68164l-1.46289,-1.36328l1.23047,-1.31836h-6.2793c0.9,-0.56 1.71922,-1.23 2.44922,-2h3.83008l-1.23047,-1.31836l1.46289,-1.36328z" id="strokeMainSVG"></path></g><g fill="#ffffff" fill-rule="nonzero" stroke="none" stroke-width="1" stroke-linecap="butt" stroke-linejoin="miter" stroke-miterlimit="10" stroke-dasharray="" stroke-dashoffset="0" font-family="none" font-weight="none" font-size="none" text-anchor="none" style="mix-blend-mode: normal"><g transform="scale(8,8)"><path d="M15.56836,2.51758l-3.43555,3.68164l3.43555,3.68359l1.46289,-1.36523l-1.36328,-1.46094c4.65464,0.34118 8.30859,4.19935 8.30859,8.94336c0,4.96953 -4.00703,8.97656 -8.97656,8.97656l-14.00195,0.02344l0.00391,2l13.99805,-0.02344c6.05047,0 10.97656,-4.92609 10.97656,-10.97656c0,-5.73951 -4.43434,-10.45889 -10.05469,-10.92969l1.10938,-1.1875zM9.67969,6.40039c-3.49,1.93 -5.66016,5.60961 -5.66016,9.59961c0,2.65 0.95125,5.1 2.53125,7h2.83008c-2.05,-1.65 -3.36133,-4.17 -3.36133,-7c0,-3.26 1.78086,-6.26961 4.63086,-7.84961zM28.43164,22.31836l-1.46289,1.36328l1.23047,1.31836h-3.83008c-0.73,0.77 -1.54922,1.44 -2.44922,2h6.2793l-1.23047,1.31836l1.46289,1.36328l3.43555,-3.68164z"></path></g></g></svg>