<svg version="1.1" xmlns="http://www.w3.org/2000/svg" xmlns:xlink="http://www.w3.org/1999/xlink" width="64px" height="64px" viewBox="0,0,256,256"><defs><linearGradient x1="16" y1="11.333" x2="16" y2="16.896" gradientUnits="userSpaceOnUse" id="color-1"><stop offset="0" stop-color="#6dc7ff"></stop><stop offset="1" stop-color="#e6abff"></stop></linearGradient><linearGradient x1="22" y1="11.333" x2="22" y2="16.896" gradientUnits="userSpaceOnUse" id="color-2"><stop offset="0" stop-color="#6dc7ff"></stop><stop offset="1" stop-color="#e6abff"></stop></linearGradient><linearGradient x1="28" y1="11.333" x2="28" y2="16.896" gradientUnits="userSpaceOnUse" id="color-3"><stop offset="0" stop-color="#6dc7ff"></stop><stop offset="1" stop-color="#e6abff"></stop></linearGradient><linearGradient x1="32" y1="8" x2="32" y2="57.847" gradientUnits="userSpaceOnUse" id="color-4"><stop offset="0" stop-color="#1a6dff"></stop><stop offset="1" stop-color="#c822ff"></stop></linearGradient><linearGradient x1="19.92" y1="8" x2="19.92" y2="57.847" gradientUnits="userSpaceOnUse" id="color-5"><stop offset="0" stop-color="#1a6dff"></stop><stop offset="1" stop-color="#c822ff"></stop></linearGradient><linearGradient x1="44.349" y1="8" x2="44.349" y2="57.847" gradientUnits="userSpaceOnUse" id="color-6"><stop offset="0" stop-color="#1a6dff"></stop><stop offset="1" stop-color="#c822ff"></stop></linearGradient><linearGradient x1="32.5" y1="8" x2="32.5" y2="57.847" gradientUnits="userSpaceOnUse" id="color-7"><stop offset="0" stop-color="#1a6dff"></stop><stop offset="1" stop-color="#c822ff"></stop></linearGradient></defs><g fill="none" fill-rule="nonzero" stroke="none" stroke-width="1" stroke-linecap="butt" stroke-linejoin="miter" stroke-miterlimit="10" stroke-dasharray="" stroke-dashoffset="0" font-family="none" font-weight="none" font-size="none" text-anchor="none" style="mix-blend-mode: normal"><g transform="scale(4,4)"><path d="M16,16c-1.103,0 -2,-0.897 -2,-2c0,-1.103 0.897,-2 2,-2c1.103,0 2,0.897 2,2c0,1.103 -0.897,2 -2,2zM16,13.999v0.001z" fill="url(#color-1)"></path><path d="M22,16c-1.103,0 -2,-0.897 -2,-2c0,-1.103 0.897,-2 2,-2c1.103,0 2,0.897 2,2c0,1.103 -0.897,2 -2,2zM22,13.999v0.001z" fill="url(#color-2)"></path><path d="M28,16c-1.103,0 -2,-0.897 -2,-2c0,-1.103 0.897,-2 2,-2c1.103,0 2,0.897 2,2c0,1.103 -0.897,2 -2,2zM28,13.999v0.001z" fill="url(#color-3)"></path><path d="M51,8h-38c-2.757,0 -5,2.243 -5,5v38c0,2.757 2.243,5 5,5h38c2.757,0 5,-2.243 5,-5v-38c0,-2.757 -2.243,-5 -5,-5zM13,10h38c1.654,0 3,1.346 3,3v5h-44v-5c0,-1.654 1.346,-3 3,-3zM51,54h-38c-1.654,0 -3,-1.346 -3,-3v-31h44v31c0,1.654 -1.346,3 -3,3z" fill="url(#color-4)"></path><path d="M23.171,28.248l-7.137,6.245c-0.435,0.38 -0.684,0.93 -0.684,1.508c0,0.578 0.249,1.127 0.684,1.508l7.137,6.244l1.317,-1.505l-7.137,-6.251l7.137,-6.244z" fill="url(#color-5)"></path><path d="M41.529,28.285l-1.397,1.431l6.434,6.288l-6.434,6.281l1.397,1.431l6.434,-6.281c0.389,-0.38 0.604,-0.89 0.604,-1.434c0,-0.544 -0.215,-1.054 -0.604,-1.434z" fill="url(#color-6)"></path><path d="M27.059,48.661l1.882,0.678l9,-25l-1.882,-0.678z" fill="url(#color-7)"></path></g></g></svg>